<mxfile host="app.diagrams.net" modified="2023-12-14T06:27:45.325Z" agent="Mozilla/5.0 (Macintosh; Intel Mac OS X 10_15_7) AppleWebKit/537.36 (KHTML, like Gecko) Chrome/120.0.0.0 Safari/537.36" version="22.1.8" etag="gj4K2SMIPrtXEAG-0F6S" type="github">
  <diagram name="第 1 页" id="SZlRX_cA0GMER9Lkn0Fc">
    <mxGraphModel>
      <root>
        <mxCell id="0" />
        <mxCell id="1" parent="0" />
      </root>
    </mxGraphModel>
  </diagram>
</mxfile>
